<?xml version="1.0" encoding="UTF-8"?>
<svg id="_图层_1" data-name="图层 1" xmlns="http://www.w3.org/2000/svg" width="32.4" height="22.352" viewBox="0 0 32.4 22.352">
  <g id="line_tool" data-name="line tool">
    <g>
      <circle cx="21.35" cy="6.6" r=".9" style="fill: #ff6a61; stroke: #2f2f31; stroke-width: .5px;"/>
      <circle cx="15.05" cy="9" r=".9" style="fill: none; stroke: #2f2f31; stroke-width: .5px;"/>
      <circle cx="11.15" cy="15.6" r=".9" style="fill: none; stroke: #2f2f31; stroke-width: .5px;"/>
      <circle cx="18.85" cy="15.6" r=".9" style="fill: none; stroke: #2f2f31; stroke-width: .5px;"/>
      <g>
        <rect x="12.25" y="15.4" width=".4" height=".4" style="fill: #2f2f31;"/>
        <rect x="13.15" y="15.4" width=".4" height=".4" style="fill: #2f2f31;"/>
        <rect x="13.95" y="15.4" width=".4" height=".4" style="fill: #2f2f31;"/>
        <rect x="14.85" y="15.4" width=".4" height=".4" style="fill: #2f2f31;"/>
        <rect x="15.65" y="15.4" width=".4" height=".4" style="fill: #2f2f31;"/>
        <rect x="16.55" y="15.4" width=".4" height=".4" style="fill: #2f2f31;"/>
        <rect x="17.45" y="15.4" width=".4" height=".4" style="fill: #2f2f31;"/>
      </g>
      <g>
        <rect x="16.004" y="8.374" width=".4" height=".4" transform="translate(-1.9682 6.1543) rotate(-20.3)" style="fill: #2f2f31;"/>
        <rect x="16.7502" y="8.1151" width=".4" height=".4" transform="translate(-1.832 6.3971) rotate(-20.3)" style="fill: #2f2f31;"/>
        <rect x="17.5964" y="7.7562" width=".4" height=".4" transform="translate(-1.6549 6.6684) rotate(-20.3)" style="fill: #2f2f31;"/>
        <rect x="18.3427" y="7.4972" width=".4" height=".4" transform="translate(-1.5187 6.9112) rotate(-20.3)" style="fill: #2f2f31;"/>
        <rect x="19.1889" y="7.2384" width=".4" height=".4" transform="translate(-1.3764 7.1887) rotate(-20.3)" style="fill: #2f2f31;"/>
        <rect x="19.9351" y="6.8794" width=".4" height=".4" transform="translate(-1.2055 7.4253) rotate(-20.3)" style="fill: #2f2f31;"/>
      </g>
      <g>
        <rect x="11.547" y="14.3946" width=".4" height=".4" transform="translate(-6.7658 17.4705) rotate(-60)" style="fill: #2f2f31;"/>
        <rect x="12.0908" y="13.6116" width=".4" height=".4" transform="translate(-5.8158 17.5499) rotate(-60)" style="fill: #2f2f31;"/>
        <rect x="12.398" y="12.8652" width=".4" height=".4" transform="translate(-5.0158 17.4427) rotate(-60)" style="fill: #2f2f31;"/>
        <rect x="12.8917" y="12.1688" width=".4" height=".4" transform="translate(-4.1658 17.5222) rotate(-60)" style="fill: #2f2f31;"/>
        <rect x="13.1989" y="11.4224" width=".4" height=".4" transform="translate(-3.3658 17.415) rotate(-60)" style="fill: #2f2f31;"/>
        <rect x="13.7427" y="10.6394" width=".4" height=".4" transform="translate(-2.4158 17.4944) rotate(-60)" style="fill: #2f2f31;"/>
        <rect x="14.1499" y="9.893" width=".4" height=".4" transform="translate(-1.5658 17.4738) rotate(-60)" style="fill: #2f2f31;"/>
      </g>
      <g>
        <rect x="18.097" y="14.2655" width=".4" height=".4" transform="translate(-4.7814 11.0865) rotate(-30)" style="fill: #2f2f31;"/>
        <rect x="17.6042" y="13.5119" width=".4" height=".4" transform="translate(-4.4706 10.7391) rotate(-30)" style="fill: #2f2f31;"/>
        <rect x="17.248" y="12.7949" width=".4" height=".4" transform="translate(-4.1599 10.465) rotate(-30)" style="fill: #2f2f31;"/>
        <rect x="16.7551" y="12.1413" width=".4" height=".4" transform="translate(-3.8991 10.131) rotate(-30)" style="fill: #2f2f31;"/>
        <rect x="16.3489" y="11.3377" width=".4" height=".4" transform="translate(-3.5517 9.8202) rotate(-30)" style="fill: #2f2f31;"/>
        <rect x="15.9061" y="10.6707" width=".4" height=".4" transform="translate(-3.2775 9.5094) rotate(-30)" style="fill: #2f2f31;"/>
        <rect x="15.4999" y="9.8671" width=".4" height=".4" transform="translate(-2.9302 9.1987) rotate(-30)" style="fill: #2f2f31;"/>
      </g>
    </g>
  </g>
</svg>