<?xml version="1.0" encoding="UTF-8"?>
<svg id="right_down" data-name="right down" xmlns="http://www.w3.org/2000/svg" width="78.6465" height="124.0041" xmlns:xlink="http://www.w3.org/1999/xlink" viewBox="0 0 78.6465 124.0041">
  <defs>
    <linearGradient id="_未命名的渐变_4" data-name="未命名的渐变 4" x1="-217.2448" y1="315.13" x2="-217.1669" y2="315.052" gradientTransform="translate(35979.2903 -34161.8081) rotate(-8.8359) scale(187.5908 89.8504)" gradientUnits="userSpaceOnUse">
      <stop offset="0" stop-color="#777173"/>
      <stop offset="1" stop-color="#28272b"/>
    </linearGradient>
    <linearGradient id="_未命名的渐变_5" data-name="未命名的渐变 5" x1="-216.7559" y1="313.7115" x2="-216.7559" y2="313.6192" gradientTransform="translate(-71096.262 -15570.4112) rotate(160.6832) scale(285.8657 -122.0824)" gradientUnits="userSpaceOnUse">
      <stop offset="0" stop-color="#fff9f2"/>
      <stop offset="1" stop-color="#e8ded8"/>
    </linearGradient>
    <linearGradient id="_未命名的渐变_17" data-name="未命名的渐变 17" x1="-217.0236" y1="319.3063" x2="-217.0236" y2="319.1882" gradientTransform="translate(103342.4377 69443.6872) scale(476 -217.3269)" gradientUnits="userSpaceOnUse">
      <stop offset="0" stop-color="#ff9a8f"/>
      <stop offset=".48" stop-color="#ff6a61"/>
      <stop offset="1" stop-color="#c93e39"/>
    </linearGradient>
    <linearGradient id="_未命名的渐变_17-2" data-name="未命名的渐变 17" x1="-236.0281" y1="319.2181" x2="-236.0281" y2="319.0745" gradientTransform="translate(-15155.7636 -9347.4678) rotate(-129.5167) scale(71.7832 18.0715)" xlink:href="#_未命名的渐变_17"/>
    <linearGradient id="_未命名的渐变_3" data-name="未命名的渐变 3" x1="-223.6853" y1="319.6184" x2="-223.5454" y2="319.4785" gradientTransform="translate(19468.3614 13503.2596) scale(87 -42.033)" gradientUnits="userSpaceOnUse">
      <stop offset="0" stop-color="#a9312e"/>
      <stop offset="1" stop-color="#e65049"/>
    </linearGradient>
    <linearGradient id="_未命名的渐变_3-2" data-name="未命名的渐变 3" x1="-223.7115" y1="319.4259" x2="-223.579" y2="319.2934" gradientTransform="translate(21952.3378 29129.68) scale(98 -91)" xlink:href="#_未命名的渐变_3"/>
    <linearGradient id="_未命名的渐变_3-3" data-name="未命名的渐变 3" x1="-222.9445" y1="318.8348" x2="-222.7747" y2="318.6649" gradientTransform="translate(28480.2292 25478.4464) scale(127.5 -79.7413)" xlink:href="#_未命名的渐变_3"/>
    <linearGradient id="_未命名的渐变_3-4" data-name="未命名的渐变 3" x1="-239.1052" y1="317.2423" x2="-238.9652" y2="317.1023" gradientTransform="translate(10167.8469 16546.12) scale(42.2334 -52)" xlink:href="#_未命名的渐变_3"/>
    <linearGradient id="_未命名的渐变_11" data-name="未命名的渐变 11" x1="-222.7223" y1="319.7077" x2="-222.5894" y2="319.5749" gradientTransform="translate(21162.1624 12906.1561) scale(95 -40.1521)" gradientUnits="userSpaceOnUse">
      <stop offset="0" stop-color="#ffd1ca"/>
      <stop offset="1" stop-color="#ff857b"/>
    </linearGradient>
    <linearGradient id="_未命名的渐变_11-2" data-name="未命名的渐变 11" x1="-223.5112" y1="319.4321" x2="-223.3442" y2="319.2651" gradientTransform="translate(21926.3378 24802.7925) scale(98 -77.4552)" xlink:href="#_未命名的渐变_11"/>
    <linearGradient id="_未命名的渐变_11-3" data-name="未命名的渐变 11" x1="-224.1755" y1="317.6656" x2="-224.0267" y2="317.5168" gradientTransform="translate(22908.2383 8591.6651) scale(102 -26.8513)" xlink:href="#_未命名的渐变_11"/>
    <linearGradient id="_未命名的渐变_61" data-name="未命名的渐变 61" x1="-216.388" y1="319.153" x2="-216.2998" y2="319.0648" gradientTransform="translate(58270.7084 61005.2243) scale(269.0824 -190.9531)" gradientUnits="userSpaceOnUse">
      <stop offset="0" stop-color="#fff8f2"/>
      <stop offset="1" stop-color="#ebcdd0"/>
    </linearGradient>
  </defs>
  <g id="charcoal-smoke-01-low">
    <path id="charcoal-smoke-01-back" d="M76.6693,67.8193c.945,1.3486-.4332,3.1264-2.7079,3.2761.7996,2.187-2.4355,3.8456-4.7959,2.8529-.4291,1.9701-3.6085,2.8043-5.2024,1.4205-1.5298,1.3935-4.1976.7885-3.9171-.9546-1.7744.4118-3.4962-.6122-3.0846-2.1037,2.4696-3.0351,17.3991-5.152,19.7078-4.4912Z" style="fill: #817a7d; isolation: isolate; opacity: .22;"/>
    <path id="charcoal-smoke-01-mid" d="M60.604,70.3166l13.8215-2.1486c.8625.8176.3095,1.9913-1.1956,2.3612,1.0172,1.8133-1.5587,3.5733-3.9675,2.8601.0093,1.834-2.8802,2.759-4.4638,1.4417-1.0501,1.5228-3.8355,1.344-3.7345-.3712-1.664.5306-3.3961-.5597-2.6049-1.9743.3043-.999.7396-1.7465,2.1447-2.1688Z" style="fill: url(#_未命名的渐变_4); isolation: isolate; opacity: .62;"/>
    <path id="charcoal-smoke-01-coral-ember" d="M73.3723,69.0796c1.0213.657,2.1014,1.1009,3.489,1.1571-1.1152.5132-2.3717.7086-3.8108.3205l.3218-1.4776Z" style="fill: #c85e61; isolation: isolate; opacity: .72;"/>
  </g>
  <g id="wool-puff-03-corner">
    <path id="wool-puff-03-shadow" d="M55.0935,62.0365c2.593,1.8031,1.2987,5.4531-2.1454,6.4667,1.2043,2.3868-1.7442,5.1637-4.8778,4.6155-1.6454,2.9982-6.3137,3.666-8.0453,1.1735-2.8511,2.3554-6.821,1.5192-6.8852-1.4609-3.1336-.5482-2.7124-3.8921.3319-5.3467l18.1187-6.351c1.6188-.2768,2.655.2317,3.5031.903Z" style="fill: #6d686b; isolation: isolate; opacity: .3;"/>
    <path id="wool-puff-03-body" d="M56.7477,62.9095c1.7382,1.8122.5597,4.7436-2.4478,5.6041,1.3134,2.3485-1.7442,5.1637-5.0172,4.5675-1.3364,3.1805-6.3321,3.963-8.0939,1.3842-2.6815,2.4897-7.2576,1.6723-7.0246-1.5089-3.0429-.2894-2.7914-3.7676.2043-5.0114l18.1187-6.351c1.8068-.4396,3.2309.1266,4.2605,1.3155Z" style="fill: url(#_未命名的渐变_5);"/>
    <path id="wool-puff-03-inner" d="M52.4356,65.2927c2.1815.9788.1364,3.5359-2.003,3.0267-.2869,2.3283-3.9493,3.4183-5.2509,1.4531-1.1903,2.5481-5.2037,2.9863-5.9412.5328" style="fill: none; isolation: isolate; opacity: .68; stroke: #a9a0a1; stroke-linecap: round; stroke-width: .5px;"/>
    <path id="wool-puff-03-edge-accent" d="M38.6725,67.9861c-2.2199,1.3593-3.464,3.0545-4.3689,5.0183-1.1202-1.4476-.3363-3.7565,1.6048-5.2117l2.7641.1934Z" style="fill: #eda8a3; isolation: isolate; opacity: .62;"/>
  </g>
  <g>
    <path id="wool-puff-02-coral-fold" d="M61.3005,65.5099c6.0837-1.459,10.1395-4.377,12.4208-7.8421,1.5209,4.0122-3.0418,9.1187-10.1395,10.5777l-2.2814-2.7356Z" style="fill: #ce7376; isolation: isolate; opacity: .42;"/>
    <g>
      <g id="ribbon_main" data-name="ribbon main">
        <path d="M.0249,74.5438c7.0631-.4958,7.4077-5.2056,13.2649-6.0732,6.374-.9915,8.7858,4.2141,14.1263,3.8422,7.4077-.4958,6.8909-7.4366,15.1599-10.1633,9.4749-3.0986,16.7103,4.5859,25.4962,3.2225,7.0631-.9915,11.0254-6.1972,7.7522-10.1633-1.5504-1.8591-5.5127-2.7268-6.374-4.9577,2.3823-.9663,1.8168-.1105,4.9366,1.138,1.6574,1.8658-.113-.2704-.8021,2.0845-.6891,2.4789,3.4454,3.9662,4.4791,6.3211,1.895,4.8338-4.6513,8.1803-10.8531,8.676-10.164.7437-16.1935-5.8253-24.4625-3.5944-7.7522,1.9831-7.0631,8.1803-14.6431,10.1633-8.269,2.107-12.059-3.8422-17.744-2.8507-3.4454.6197-4.1345,2.9746-10.3363,2.3549Z" style="fill: url(#_未命名的渐变_17); stroke: #e64e47; stroke-width: .5px;"/>
        <path d="M74.3798,55.255c-.1746-1.9502-1.0307-3.496-3.5211-5.9678,4.806,2.9935,7.0918,5.5867,7.0509,7.3488l-3.5298-1.381Z" style="fill: url(#_未命名的渐变_17-2); stroke: #e64e47; stroke-width: .5px;"/>
      </g>
      <g id="ribbon_shadow" data-name="ribbon shadow" style="opacity: .9;">
        <path d="M7.4325,72.9325c2.9286-1.8591,3.6177-4.338,7.2354-4.462,3.2732-.1239,5.1681,2.6028,7.7522,3.3465l-3.1009,1.8591c-2.9286-1.7352-4.6513-3.2225-7.0631-2.3549-1.895.7437-2.5841,2.231-4.8236,1.6113Z" style="fill: url(#_未命名的渐变_3);"/>
        <path d="M26.5546,72.1889c5.1681-1.3634,5.1681-6.9408,12.9204-9.2957l3.9622.6197c-6.8909,2.9746-6.0295,8.5521-12.2313,10.6591l-4.6513-1.9831Z" style="fill: url(#_未命名的渐变_3-2);"/>
        <path d="M54.8072,64.5044c5.3404,1.8591,9.6472,1.7352,13.2649.8676,4.9959-1.2394,8.9581-4.462,7.7522-8.4281,2.5841,3.8422-.3445,7.5605-6.0295,9.1718-5.1681,1.4873-10.3363.4958-14.9876-1.6113Z" style="fill: url(#_未命名的渐变_3-3);"/>
        <path d="M69.6225,50.2509c2.4118,1.3634,4.4791,2.107,6.5463,2.3549-2.0673.9915-3.1009,2.3549-2.9286,4.0901-3.9622-1.3634-5.3404-3.5944-3.6177-6.445Z" style="fill: url(#_未命名的渐变_3-4);"/>
      </g>
      <g id="ribbon_highlight" data-name="ribbon highlight" style="opacity: .9;">
        <path d="M1.9198,73.8001c5.3404-.7437,6.7186-4.338,11.5422-4.7098,1.895-.1239,3.4454.3718,4.8236,1.2394-4.8236-.7437-6.374,3.0986-10.5086,3.7183l-5.8572-.2479Z" style="fill: url(#_未命名的渐变_11);"/>
        <path d="M22.0756,71.4452c3.2732.8676,4.8236,1.2394,7.0631.4958,3.79-1.3634,4.3068-5.8253,9.8195-8.0563-4.6513,3.0986-3.9622,7.6845-9.4749,9.2957-2.9286.8676-5.3404-.2479-7.4077-1.7352Z" style="fill: url(#_未命名的渐变_11-2);"/>
        <path d="M42.5759,62.3973c6.2018-1.7352,11.8867,1.7352,17.5717,2.8507-6.2018-.4958-11.3699-2.8507-17.0549-1.4873l-.5168-1.3634Z" style="fill: url(#_未命名的渐变_11-3);"/>
      </g>
    </g>
  </g>
  <g id="wool-puff-02-round">
    <path id="wool-puff-02-shadow" d="M45.4259,74.9225c-2.8689-1.4251-2.2541-4.3466.9221-5.3441-1.6393-2.1377.7172-4.7028,4.2008-4.4178,1.332-2.3514,6.0451-2.9215,8.0943-.8551,2.459-1.5676,6.6599-.4275,6.8648,1.9951,3.4836-.1425,5.8402,2.2802,4.2008,4.3466,2.6639,1.4251,1.332,4.4891-1.8443,4.9879-3.6885,1.4964-18.955,1.4964-22.4386-.7126Z" style="fill: #8f898b; isolation: isolate; opacity: .3;"/>
    <path id="wool-puff-02-body" d="M44.4013,73.4261c-1.9467-1.6389-.8197-4.2041,2.2541-4.6316-1.4344-2.1377,1.1271-4.4178,4.4057-3.8478,1.332-2.4227,6.1476-2.7789,7.8894-.4988,2.7664-1.6389,7.0697-.285,6.7623,2.2802,3.4836-.285,5.8402,2.1377,4.0984,4.2041,2.6639,1.6389.5123,4.4891-2.8689,4.3466-1.8443,1.6389-5.9426,1.6389-7.9918.0713-2.2541,1.7814-6.6599,1.4964-8.1967-.57-2.5615,1.3538-5.4303.4275-6.3525-1.3538Z" style="fill: url(#_未命名的渐变_61);"/>
    <path id="wool-puff-02-inner-01" d="M49.7291,70.0059c-2.1516-1.3538.3074-3.4202,2.5615-2.2802.4098-1.9239,4.3033-2.2089,5.4303-.3563,1.7418-1.5676,5.3279-.57,5.0205,1.4251" style="fill: none; isolation: isolate; opacity: .68; stroke: #a9a0a1; stroke-linecap: round; stroke-width: .75px;"/>
    <path id="wool-puff-02-inner-02" d="M50.4464,72.4998c1.5369,1.2113,4.4057.9263,5.123-.57,1.4344,1.4964,4.8156,1.5676,6.25.0713,1.332,1.0688,3.791.9976,4.918-.1425" style="fill: none; isolation: isolate; opacity: .5; stroke: #a9a0a1; stroke-linecap: round; stroke-width: .75px;"/>
    <path id="wool-puff-02-coral-fold-2" data-name="wool-puff-02-coral-fold" d="M64.5857,73.4974c2.459-.57,4.0984-1.7101,5.0205-3.064.6148,1.5676-1.2295,3.5628-4.0984,4.1328l-.9221-1.0688Z" style="fill: #ce7376; isolation: isolate; opacity: .42;"/>
  </g>
</svg>
